<?xml version="1.0" standalone="no"?>
<!DOCTYPE svg PUBLIC "-//W3C//DTD SVG 20010904//EN"
 "http://www.w3.org/TR/2001/REC-SVG-20010904/DTD/svg10.dtd">
<svg version="1.0" xmlns="http://www.w3.org/2000/svg"
 width="1119.000000pt" height="1280.000000pt" viewBox="0 0 1119.000000 1280.000000"
 preserveAspectRatio="xMidYMid meet">
<g transform="translate(0.000000,1280.000000) scale(0.100000,-0.100000)"
fill="#000000" stroke="none">
<path d="M5480 12771 c-92 -33 -147 -68 -223 -140 -104 -99 -223 -274 -327
-482 -229 -455 -430 -1237 -585 -2269 -47 -319 -125 -967 -125 -1047 0 -30
-34 -21 -185 47 -1012 458 -2062 817 -2720 930 -483 83 -879 60 -1095 -63 -65
-37 -133 -105 -162 -160 -25 -50 -58 -166 -58 -207 0 -52 57 -252 99 -347 271
-615 1237 -1558 2599 -2537 67 -49 122 -92 122 -97 0 -4 -55 -48 -122 -96
-930 -666 -1775 -1402 -2207 -1923 -210 -253 -385 -548 -444 -750 -53 -183
-57 -218 -31 -308 67 -232 241 -340 602 -373 194 -17 498 11 827 76 666 132
1572 445 2535 874 112 50 210 91 217 91 19 0 21 -8 38 -185 86 -881 255 -1837
439 -2471 181 -627 438 -1093 692 -1254 53 -33 188 -80 232 -80 39 0 164 44
221 77 71 41 210 187 280 293 355 541 648 1647 820 3100 17 140 35 311 42 380
6 69 16 130 21 137 7 9 29 3 86 -23 966 -443 1946 -787 2652 -933 308 -63 422
-76 705 -76 238 0 268 2 350 23 228 58 349 163 396 345 24 94 24 101 -10 237
-85 345 -357 746 -820 1208 -461 461 -1161 1042 -1848 1535 -68 48 -123 91
-123 95 0 5 62 53 138 107 379 273 830 625 1150 899 266 229 413 364 637 590
572 576 861 1021 892 1375 9 97 -47 233 -129 312 -94 92 -252 148 -478 168
-189 18 -369 9 -625 -28 -635 -93 -1699 -452 -2779 -938 -131 -59 -191 -82
-196 -73 -4 6 -13 71 -19 143 -91 968 -281 1989 -492 2644 -155 482 -332 827
-518 1014 -97 96 -146 128 -251 164 -91 31 -125 30 -220 -4z m105 -231 c64
-31 178 -145 239 -238 342 -527 624 -1704 775 -3243 16 -167 31 -331 33 -364
l3 -59 -365 -184 c-201 -100 -432 -219 -515 -264 l-150 -81 -85 44 c-488 253
-626 323 -889 451 -167 81 -308 151 -313 156 -10 10 9 226 52 607 136 1182
345 2092 621 2699 125 276 255 438 397 491 52 20 137 14 197 -15z m-4585
-2785 c643 -62 1528 -332 2585 -787 253 -109 597 -266 609 -278 6 -6 1 -125
-12 -297 -12 -158 -29 -434 -37 -613 -9 -179 -19 -372 -23 -429 l-7 -104 -105
-65 c-148 -91 -559 -358 -723 -469 l-138 -94 -30 18 c-53 32 -467 330 -689
496 -939 706 -1645 1375 -1954 1854 -61 95 -140 254 -160 323 -56 199 -13 322
137 395 131 63 280 76 547 50z m9640 -16 c247 -66 319 -220 225 -474 -171
-460 -841 -1161 -1885 -1971 -328 -255 -908 -674 -932 -674 -5 0 -71 42 -146
94 -153 104 -561 369 -722 468 l-105 65 -7 104 c-3 57 -11 219 -18 359 -11
247 -28 517 -51 823 -7 87 -8 152 -3 157 25 24 630 290 1016 446 1168 474
2217 714 2628 603z m-6027 -1247 c325 -159 825 -418 846 -437 17 -16 38 -2
-354 -223 -275 -155 -774 -447 -827 -484 -16 -11 -32 -16 -38 -13 -5 3 -10 41
-10 83 0 157 50 1046 66 1170 3 28 10 42 20 42 8 0 141 -62 297 -138z m2041
-59 c11 -133 46 -784 46 -865 0 -54 -4 -78 -12 -78 -7 0 -107 56 -222 124
-116 68 -305 176 -421 241 -231 130 -315 182 -315 195 0 17 862 459 896 460
19 0 22 -7 28 -77z m-1011 -474 c80 -41 673 -377 867 -492 l195 -115 7 -114
c9 -141 12 -1449 4 -1474 -4 -11 -70 -57 -149 -104 -190 -113 -670 -388 -834
-479 l-133 -73 -87 48 c-207 112 -603 341 -935 541 l-356 214 -8 97 c-8 106 3
1151 12 1176 12 32 1320 793 1367 796 4 0 27 -10 50 -21z m-1532 -1404 c-1
-302 -4 -552 -7 -554 -8 -9 -61 23 -357 215 -392 255 -497 326 -497 340 0 11
244 175 580 391 241 154 254 162 269 160 12 -2 14 -88 12 -552z m3092 492
c115 -72 479 -308 635 -412 67 -45 102 -74 100 -84 -5 -29 -833 -570 -848
-555 -6 6 -16 1032 -11 1107 2 15 25 5 124 -56z m-4100 -836 c208 -144 575
-385 829 -545 l186 -118 6 -101 c3 -56 12 -250 21 -432 9 -181 21 -397 27
-478 7 -89 8 -151 2 -157 -27 -27 -818 -376 -1179 -520 -944 -377 -1715 -588
-2220 -607 -313 -11 -501 44 -579 170 -38 61 -46 161 -21 257 65 257 357 644
856 1135 325 319 591 550 1029 892 358 279 832 623 858 623 7 0 90 -53 185
-119z m5342 6 c1172 -829 2053 -1641 2443 -2255 164 -256 187 -490 61 -597
-41 -34 -134 -77 -209 -96 -73 -18 -432 -19 -555 -1 -729 107 -1663 421 -2845
957 -298 135 -330 152 -330 174 0 10 7 114 15 232 8 118 19 313 25 434 5 121
13 279 16 352 l6 131 242 153 c246 155 899 589 926 615 8 8 21 14 30 14 8 0
87 -51 175 -113z m-3945 -900 c135 -80 346 -203 470 -274 125 -72 225 -135
225 -143 0 -15 -867 -459 -897 -460 -21 0 -25 29 -43 370 -30 558 -31 670 -8
657 5 -2 118 -70 253 -150z m2200 -79 c0 -92 -29 -649 -35 -665 -2 -7 -10 -13
-17 -13 -16 0 -638 316 -653 331 -7 7 -4 15 10 25 40 30 670 393 683 393 8 1
12 -20 12 -71z m-875 -664 c121 -64 350 -181 509 -260 159 -79 292 -148 296
-154 8 -13 7 -26 -31 -419 -150 -1534 -433 -2716 -775 -3243 -61 -93 -175
-207 -239 -238 -189 -92 -386 49 -555 395 -297 607 -517 1536 -660 2780 -42
371 -63 607 -53 615 4 4 82 42 173 85 209 98 680 335 915 459 99 52 185 95
190 96 6 0 109 -52 230 -116z"/>
<path d="M5500 6970 c0 -5 7 -10 15 -10 33 0 12 -18 -27 -24 -103 -16 -228
-84 -300 -165 -51 -56 -102 -155 -123 -235 -20 -75 -19 -203 1 -274 61 -219
210 -357 432 -401 122 -25 275 3 387 71 17 10 35 18 40 18 15 -1 -34 -37 -82
-62 -64 -32 -44 -34 23 -1 65 31 179 133 207 185 l18 33 -28 -34 c-42 -52
-103 -111 -115 -111 -6 0 14 26 43 58 96 104 149 239 149 382 0 184 -90 359
-233 452 -62 41 -145 75 -204 84 -24 4 -43 10 -43 15 0 5 5 9 10 9 6 0 10 5
10 10 0 6 -37 10 -90 10 -53 0 -90 -4 -90 -10z m135 -10 c4 -6 -12 -10 -40
-10 -28 0 -44 4 -40 10 3 6 21 10 40 10 19 0 37 -4 40 -10z"/>
<path d="M5410 6950 c-12 -8 -11 -10 7 -10 12 0 25 5 28 10 8 13 -15 13 -35 0z"/>
<path d="M5745 6950 c3 -5 16 -10 28 -10 18 0 19 2 7 10 -20 13 -43 13 -35 0z"/>
<path d="M5360 6930 c-8 -5 -10 -10 -5 -10 6 0 17 5 25 10 8 5 11 10 5 10 -5
0 -17 -5 -25 -10z"/>
<path d="M5810 6930 c8 -5 20 -10 25 -10 6 0 3 5 -5 10 -8 5 -19 10 -25 10 -5
0 -3 -5 5 -10z"/>
<path d="M5295 6898 c-46 -24 -166 -140 -184 -178 -8 -18 -4 -15 16 10 55 68
176 170 204 170 5 0 9 5 9 10 0 12 3 13 -45 -12z"/>
<path d="M5850 6910 c0 -5 4 -10 9 -10 28 0 142 -95 205 -171 l29 -34 -19 33
c-38 67 -224 219 -224 182z"/>
<path d="M5085 6679 c-4 -6 -5 -12 -2 -15 2 -3 7 2 10 11 7 17 1 20 -8 4z"/>
<path d="M6090 6685 c0 -2 9 -19 20 -37 23 -39 27 -30 5 12 -14 27 -25 38 -25
25z"/>
<path d="M5046 6594 c-4 -9 -4 -19 -1 -22 2 -3 7 3 11 12 4 9 4 19 1 22 -2 3
-7 -3 -11 -12z"/>
<path d="M6130 6598 c0 -9 5 -20 10 -23 13 -8 13 5 0 25 -8 13 -10 13 -10 -2z"/>
<path d="M6154 6509 c-3 -6 -1 -16 5 -22 8 -8 11 -5 11 11 0 24 -5 28 -16 11z"/>
<path d="M5021 6494 c0 -11 3 -14 6 -6 3 7 2 16 -1 19 -3 4 -6 -2 -5 -13z"/>
<path d="M5011 6399 c1 -44 3 -56 8 -39 7 25 4 90 -4 99 -3 2 -5 -25 -4 -60z"/>
<path d="M6173 6395 c0 -33 2 -45 4 -27 2 18 2 45 0 60 -2 15 -4 0 -4 -33z"/>
<path d="M5021 6304 c0 -11 3 -14 6 -6 3 7 2 16 -1 19 -3 4 -6 -2 -5 -13z"/>
<path d="M6161 6304 c0 -11 3 -14 6 -6 3 7 2 16 -1 19 -3 4 -6 -2 -5 -13z"/>
<path d="M6137 6223 c-4 -3 -7 -13 -7 -22 1 -13 3 -13 11 2 11 19 8 33 -4 20z"/>
<path d="M5050 6196 c0 -10 40 -86 45 -86 2 0 -4 18 -14 40 -18 40 -31 60 -31
46z"/>
<path d="M6096 6123 c-6 -14 -5 -15 5 -6 7 7 10 15 7 18 -3 3 -9 -2 -12 -12z"/>
<path d="M5110 6084 c0 -6 30 -44 66 -83 54 -58 83 -79 160 -118 52 -25 97
-43 100 -40 4 4 -2 9 -12 12 -98 31 -215 115 -287 206 -15 19 -27 29 -27 23z"/>
<path d="M5745 5850 c-8 -13 15 -13 35 0 12 8 11 10 -7 10 -12 0 -25 -4 -28
-10z"/>
<path d="M5505 5830 c-4 -6 11 -10 37 -9 33 0 38 2 23 9 -28 12 -53 12 -60 0z"/>
<path d="M5625 5830 c-16 -7 -13 -9 18 -9 20 -1 37 4 37 9 0 12 -27 12 -55 0z"/>
</g>
</svg>
